<svg xmlns="http://www.w3.org/2000/svg" version="1.1" xmlns:xlink="http://www.w3.org/1999/xlink" xmlns:svgjs="http://svgjs.dev/svgjs" width="1000" height="786" viewBox="0 0 1000 786"><g transform="matrix(1,0,0,1,-0.024782120605891578,0.3182190520337258)"><svg viewBox="0 0 314 247" data-background-color="#ffffff" preserveAspectRatio="xMidYMid meet" height="786" width="1000" xmlns="http://www.w3.org/2000/svg" xmlns:xlink="http://www.w3.org/1999/xlink"><g id="tight-bounds" transform="matrix(1,0,0,1,0.007781602704000079,-0.10000013467217173)"><svg viewBox="0 0 313.9844185131305 247.2" height="247.2" width="313.9844185131305"><g><svg viewBox="0 0 395.52 311.3929807822972" height="247.2" width="313.9844185131305"><g transform="matrix(1,0,0,1,0,231.32270902824828)"><svg viewBox="0 0 395.52 80.07027175404886" height="80.07027175404886" width="395.52"><g><svg viewBox="0 0 395.52 80.07027175404886" height="80.07027175404886" width="395.52"><g><svg viewBox="0 0 395.52 80.07027175404886" height="80.07027175404886" width="395.52"><g transform="matrix(1,0,0,1,0,0)"><svg width="395.52" viewBox="0.24000000953674316 -35.349998474121094 177.87998962402344 36.0099983215332" height="80.07027175404886" data-palette-color="#a4520b"><path d="M0.24-0.2L0.24-1.15Q0.24-1.2 0.28-1.27 0.32-1.34 0.44-1.34L0.44-1.34Q0.9-1.34 1.61-1.39 2.32-1.44 3.11-1.57 3.91-1.71 4.71-1.95 5.52-2.2 6.15-2.56 6.79-2.93 7.19-3.44 7.59-3.96 7.59-4.66L7.59-4.66 7.59-29.69Q7.59-30.93 7.23-31.63 6.86-32.32 6.24-32.67 5.62-33.01 4.79-33.09 3.96-33.18 3-33.18L3-33.18 1.61-33.18Q1.49-33.18 1.45-33.25 1.42-33.33 1.42-33.37L1.42-33.37 1.42-34.35Q1.42-34.4 1.45-34.47 1.49-34.55 1.61-34.55L1.61-34.55Q1.64-34.55 1.87-34.56 2.1-34.57 2.69-34.57 3.27-34.57 4.27-34.58 5.27-34.59 6.88-34.59L6.88-34.59Q7.23-34.59 8.07-34.62 8.91-34.64 10-34.67 11.08-34.69 12.29-34.73 13.5-34.77 14.59-34.79 15.67-34.81 16.53-34.84 17.38-34.86 17.77-34.86L17.77-34.86Q19.02-34.86 20.54-34.78 22.07-34.69 23.62-34.4 25.17-34.11 26.64-33.56 28.1-33.01 29.24-32.09 30.37-31.18 31.05-29.83 31.74-28.49 31.74-26.61L31.74-26.61Q31.74-25.49 31.38-24.56 31.03-23.63 30.48-22.91 29.93-22.19 29.3-21.67 28.66-21.14 28.11-20.79 27.56-20.43 27.16-20.26 26.76-20.09 26.71-20.07L26.71-20.07Q28.1-19.29 29.36-18.36 30.62-17.43 31.57-16.27 32.52-15.11 33.07-13.72 33.62-12.33 33.62-10.64L33.62-10.64Q33.62-8.67 33.08-7.15 32.54-5.64 31.67-4.52 30.79-3.39 29.65-2.62 28.52-1.86 27.32-1.35 26.12-0.85 24.94-0.57 23.75-0.29 22.78-0.17 21.8-0.05 21.13-0.02 20.46 0 20.26 0L20.26 0 0.44 0Q0.32 0 0.28-0.07 0.24-0.15 0.24-0.2L0.24-0.2ZM14.67-18.29L14.67-6.49Q14.67-5.54 15.16-4.77 15.65-4 16.41-3.45 17.16-2.91 18.1-2.6 19.04-2.29 19.97-2.29L19.97-2.29Q21.53-2.29 22.73-2.88 23.93-3.47 24.71-4.52 25.49-5.57 25.89-7.02 26.29-8.47 26.29-10.21L26.29-10.21Q26.29-12.28 25.66-13.84 25.02-15.41 23.88-16.46 22.73-17.5 21.14-18.03 19.56-18.55 17.65-18.55L17.65-18.55 14.99-18.55Q14.75-18.55 14.71-18.47 14.67-18.38 14.67-18.29L14.67-18.29ZM15.19-20.8L18.99-20.8Q20.17-20.8 21.18-21.23 22.19-21.66 22.94-22.41 23.68-23.17 24.11-24.21 24.54-25.24 24.54-26.46L24.54-26.46Q24.54-28.32 24.08-29.53 23.63-30.74 22.75-31.45 21.88-32.15 20.57-32.43 19.26-32.71 17.55-32.71L17.55-32.71Q17.19-32.71 16.69-32.67 16.19-32.62 15.72-32.48 15.26-32.35 14.94-32.1 14.62-31.86 14.62-31.47L14.62-31.47 14.62-21.26Q14.62-21.19 14.7-21 14.77-20.8 15.19-20.8L15.19-20.8ZM41.33-30.15L41.33-30.15Q41.33-30.86 41-31.41 40.67-31.96 40.11-32.32 39.55-32.69 38.82-32.89 38.08-33.08 37.25-33.08L37.25-33.08Q37.06-33.08 37.06-33.28L37.06-33.28 37.06-34.23Q37.06-34.42 37.23-34.42L37.23-34.42 52.66-34.42Q52.78-34.42 52.82-34.35 52.85-34.28 52.85-34.23L52.85-34.23 52.85-33.28Q52.85-33.23 52.82-33.15 52.78-33.08 52.66-33.08L52.66-33.08Q51.93-33.08 51.16-32.98 50.39-32.89 49.74-32.54 49.09-32.2 48.69-31.56 48.29-30.91 48.29-29.81L48.29-29.81 48.29-12.7Q48.29-7.81 50.78-5.14 53.27-2.47 58.23-2.47L58.23-2.47Q60.28-2.47 62.16-3.04 64.04-3.61 65.48-4.81 66.92-6.01 67.77-7.86 68.63-9.72 68.63-12.28L68.63-12.28 68.63-27.44Q68.63-28.27 68.56-29.15 68.5-30.03 68.16-30.81 67.82-31.59 67.09-32.17 66.35-32.74 65.01-32.96L65.01-32.96Q64.4-33.06 64-33.07 63.6-33.08 63.47-33.08L63.47-33.08Q63.28-33.08 63.28-33.28L63.28-33.28 63.28-34.23Q63.28-34.42 63.47-34.42L63.47-34.42 76.22-34.42Q76.34-34.42 76.38-34.35 76.41-34.28 76.41-34.23L76.41-34.23 76.41-33.28Q76.41-33.23 76.36-33.15 76.32-33.08 76.22-33.08L76.22-33.08Q75.34-33.08 74.67-32.95 74-32.81 73.65-32.67L73.65-32.67Q73.24-32.5 72.9-32.14 72.56-31.79 72.32-31.38 72.09-30.98 71.97-30.55 71.85-30.13 71.85-29.81L71.85-29.81 71.85-14.18Q71.85-10.74 70.94-8 70.04-5.25 68.22-3.33 66.4-1.42 63.64-0.38 60.89 0.66 57.2 0.66L57.2 0.66Q55.44 0.66 53.57 0.39 51.71 0.12 49.94-0.46 48.17-1.05 46.6-1.98 45.04-2.91 43.87-4.2 42.7-5.49 42.01-7.18 41.33-8.86 41.33-10.99L41.33-10.99 41.33-30.15ZM79.8-17.5L79.8-17.5Q79.8-19.97 80.46-22.24 81.12-24.51 82.32-26.5 83.52-28.49 85.19-30.11 86.86-31.74 88.86-32.91 90.86-34.08 93.15-34.72 95.43-35.35 97.85-35.35L97.85-35.35Q99.14-35.35 100.48-35.19 101.83-35.03 103.11-34.79 104.39-34.55 105.54-34.25 106.68-33.96 107.55-33.72 108.42-33.47 108.97-33.31 109.52-33.15 109.59-33.15L109.59-33.15 109.88-33.15Q110.08-33.15 110.19-33.19 110.3-33.23 110.38-33.28 110.47-33.33 110.57-33.36 110.66-33.4 110.86-33.4L110.86-33.4 111.84-33.4Q111.88-33.4 111.99-33.36 112.1-33.33 112.1-33.13L112.1-33.13 112.1-25Q112.1-24.73 111.87-24.63 111.64-24.54 111.47-24.54L111.47-24.54Q111.25-24.56 111.08-24.78 110.91-25 110.76-25.27 110.62-25.54 110.52-25.78 110.42-26.03 110.4-26.15L110.4-26.15Q109.79-28.05 108.67-29.36 107.56-30.66 106.06-31.49 104.56-32.32 102.77-32.69 100.97-33.06 98.99-33.06L98.99-33.06Q95.6-33.06 93.33-31.81 91.06-30.57 89.68-28.47 88.3-26.37 87.73-23.62 87.15-20.87 87.15-17.85L87.15-17.85Q87.15-15.77 87.57-13.77 87.98-11.77 88.75-9.97 89.52-8.18 90.62-6.68 91.72-5.18 93.07-4.09 94.43-3 96-2.39 97.58-1.78 99.34-1.78L99.34-1.78Q101.31-1.78 102.81-2.21 104.32-2.64 105.24-3.88L105.24-3.88 105.24-9.28Q105.24-10.33 104.99-11.15 104.73-11.96 104.05-12.52 103.36-13.09 102.19-13.38 101.02-13.67 99.19-13.67L99.19-13.67Q99.04-13.67 98.98-13.95 98.92-14.23 98.92-14.43L98.92-14.43Q98.92-14.55 98.98-14.84 99.04-15.14 99.19-15.14L99.19-15.14 116.18-15.14Q116.38-15.14 116.41-14.86 116.45-14.58 116.45-14.43L116.45-14.43Q116.45-14.31 116.4-14.04 116.35-13.77 116.18-13.67L116.18-13.67Q115.52-13.4 114.83-13.21 114.13-13.01 113.54-12.7 112.96-12.38 112.58-11.83 112.2-11.28 112.2-10.33L112.2-10.33 112.2-3.2Q112.2-3 112.04-2.88 111.88-2.76 111.54-2.61L111.54-2.61Q110.18-1.95 108.44-1.37 106.71-0.78 104.88-0.33 103.05 0.12 101.24 0.39 99.43 0.66 97.94 0.66L97.94 0.66Q94.16 0.66 90.86-0.6 87.57-1.86 85.1-4.21 82.64-6.57 81.22-9.94 79.8-13.31 79.8-17.5ZM119.33 0L119.33 0Q119.28 0 119.21-0.06 119.13-0.12 119.13-0.2L119.13-0.2 119.13-1.27Q119.13-1.46 119.33-1.46L119.33-1.46Q119.6-1.46 119.94-1.46 120.28-1.46 120.61-1.49 120.94-1.51 121.21-1.54 121.48-1.56 121.62-1.64L121.62-1.64Q122.23-1.93 122.62-2.42 123.01-2.91 123.22-3.54 123.43-4.17 123.5-4.93 123.58-5.69 123.58-6.54L123.58-6.54 123.58-30.93Q123.58-31.59 123.05-31.99 122.53-32.4 121.83-32.6 121.14-32.81 120.41-32.89 119.69-32.96 119.33-32.96L119.33-32.96Q119.21-32.96 119.17-33.03 119.13-33.11 119.13-33.15L119.13-33.15 119.13-34.23Q119.13-34.28 119.17-34.35 119.21-34.42 119.33-34.42L119.33-34.42 130.39-34.42 151.43-11.13Q151.56-11.01 151.6-10.95 151.65-10.89 151.73-10.89L151.73-10.89Q151.82-10.89 151.85-10.96 151.87-11.04 151.87-11.11L151.87-11.11 151.87-25.61Q151.87-28.03 151.7-29.48 151.53-30.93 151.07-31.7 150.6-32.47 149.82-32.71 149.04-32.96 147.82-32.96L147.82-32.96 146.57-32.96Q146.45-32.96 146.42-33.03 146.38-33.11 146.38-33.15L146.38-33.15 146.38-34.23Q146.38-34.28 146.42-34.35 146.45-34.42 146.57-34.42L146.57-34.42 160-34.42Q160.15-34.42 160.17-34.35 160.2-34.28 160.2-34.23L160.2-34.23 160.2-33.15Q160.2-33.11 160.16-33.03 160.12-32.96 160-32.96L160-32.96Q159.51-32.96 158.74-32.76 157.98-32.57 157.24-32.2 156.51-31.84 155.99-31.3 155.46-30.76 155.46-30.08L155.46-30.08 155.46-1.2Q155.46-0.78 155.27-0.5 155.07-0.22 154.77-0.05 154.46 0.12 154.11 0.21 153.75 0.29 153.46 0.29L153.46 0.29Q152.97 0.29 152.32 0.09 151.68-0.12 151.04-0.83L151.04-0.83 128-26.39Q127.82-26.56 127.75-26.6 127.68-26.64 127.56-26.64L127.56-26.64Q127.43-26.64 127.43-26.39L127.43-26.39 127.43-4.59Q127.43-3.91 127.76-3.41 128.09-2.91 128.61-2.55 129.12-2.2 129.74-1.99 130.36-1.78 130.96-1.66 131.56-1.54 132.04-1.5 132.51-1.46 132.76-1.46L132.76-1.46Q132.88-1.46 132.93-1.37L132.93-1.37Q132.95-1.32 132.95-1.27L132.95-1.27 132.95-0.2Q132.95-0.15 132.91-0.07 132.88 0 132.76 0L132.76 0 119.33 0ZM174.16-4.64L174.16-4.64Q174.16-3.81 174.42-3.25 174.67-2.69 175.15-2.34 175.62-2 176.32-1.86 177.02-1.71 177.87-1.71L177.87-1.71Q178.07-1.71 178.07-1.51L178.07-1.51 178.07-0.2Q178.07-0.12 178.04-0.06 178.02 0 177.87 0L177.87 0 163.44 0Q163.32 0 163.28-0.07 163.25-0.15 163.25-0.2L163.25-0.2 163.25-1.51Q163.25-1.56 163.28-1.64 163.32-1.71 163.44-1.71L163.44-1.71Q164.3-1.71 164.99-1.82 165.69-1.93 166.18-2.29 166.66-2.66 166.93-3.34 167.2-4.03 167.2-5.2L167.2-5.2 167.2-29.79Q167.2-30.62 166.95-31.18 166.69-31.74 166.21-32.08 165.74-32.42 165.04-32.57 164.35-32.71 163.49-32.71L163.49-32.71Q163.3-32.71 163.3-32.91L163.3-32.91 163.3-34.23Q163.3-34.42 163.49-34.42L163.49-34.42 177.92-34.42Q178.04-34.42 178.08-34.35 178.12-34.28 178.12-34.23L178.12-34.23 178.12-32.91Q178.12-32.86 178.08-32.79 178.04-32.71 177.92-32.71L177.92-32.71Q177.07-32.71 176.37-32.6 175.67-32.5 175.19-32.13 174.7-31.76 174.43-31.08 174.16-30.4 174.16-29.22L174.16-29.22 174.16-4.64Z" opacity="1" transform="matrix(1,0,0,1,0,0)" fill="#a4520b" class="undefined-text-0" data-fill-palette-color="primary" id="text-0"></path></svg></g></svg></g></svg></g></svg></g><g transform="matrix(1,0,0,1,101.00131496048469,0)"><svg viewBox="0 0 193.5173700790306 193.5173700790306" height="193.5173700790306" width="193.5173700790306"><g><svg></svg></g><g id="icon-0"><svg viewBox="0 0 193.5173700790306 193.5173700790306" height="193.5173700790306" width="193.5173700790306"><g><path d="M0 96.759c0-53.438 43.32-96.759 96.759-96.759 53.438 0 96.759 43.32 96.758 96.759 0 53.438-43.32 96.759-96.758 96.758-53.438 0-96.759-43.32-96.759-96.758zM96.759 186.297c49.45 0 89.538-40.087 89.538-89.538 0-49.45-40.087-89.538-89.538-89.538-49.45 0-89.538 40.087-89.538 89.538 0 49.45 40.087 89.538 89.538 89.538z" data-fill-palette-color="accent" fill="#804109" stroke="transparent"></path></g><g transform="matrix(1,0,0,1,42.08780692229833,42.08780692229833)"><svg viewBox="0 0 109.34175623443394 109.34175623443394" height="109.34175623443394" width="109.34175623443394"><g><svg xmlns="http://www.w3.org/2000/svg" xmlns:xlink="http://www.w3.org/1999/xlink" version="1.1" x="0" y="0" viewBox="0 0 48 48" enable-background="new 0 0 48 48" xml:space="preserve" height="109.34175623443394" width="109.34175623443394" class="icon-c-0" data-fill-palette-color="accent" id="c-0"><g fill="#804109" data-fill-palette-color="accent"><polygon points="48,43.684 43.685,39.368 43.685,42.684 5.317,42.684 5.317,4.316 8.632,4.316 4.315,0 0,4.316 3.315,4.316    3.315,44.686 43.685,44.686 43.685,48  " fill="#804109" data-fill-palette-color="accent"></polygon><polygon points="24.566,1.469 18.132,10.049 31,10.049  " fill="#804109" data-fill-palette-color="accent"></polygon><polygon points="19.163,39.277 10.065,30.177 8.547,40.796  " fill="#804109" data-fill-palette-color="accent"></polygon><polygon points="40.588,40.795 39.067,30.177 29.969,39.277  " fill="#804109" data-fill-palette-color="accent"></polygon><path d="M24.566 35.854c6.586 0 11.943-5.357 11.943-11.942 0-6.585-5.357-11.943-11.943-11.943s-11.943 5.358-11.943 11.943C12.623 30.497 17.98 35.854 24.566 35.854zM24.071 24.581c-2.321-0.909-3.755-1.955-3.755-3.937 0-1.89 1.343-3.321 3.438-3.664v-2.3h1.409v2.209c1.365 0.045 2.3 0.41 2.96 0.796l-0.57 1.501c-0.477-0.271-1.411-0.773-2.867-0.773-1.752 0-2.412 1.047-2.412 1.956 0 1.184 0.841 1.776 2.821 2.593 2.346 0.957 3.527 2.142 3.527 4.167 0 1.798-1.252 3.481-3.594 3.868v2.369h-1.436v-2.301c-1.319-0.021-2.686-0.433-3.482-1l0.548-1.525c0.819 0.547 2.002 0.979 3.276 0.979 1.616 0 2.706-0.934 2.706-2.23C26.641 26.039 25.756 25.264 24.071 24.581z" fill="#804109" data-fill-palette-color="accent"></path></g></svg></g></svg></g></svg></g></svg></g><g></g></svg></g><defs></defs></svg><rect width="313.9844185131305" height="247.2" fill="none" stroke="none" visibility="hidden"></rect></g></svg></g></svg>